<svg width="28" height="28" viewBox="0 0 28 28" fill="none" xmlns="http://www.w3.org/2000/svg">
<path fill-rule="evenodd" clip-rule="evenodd" d="M18.306 19.8361L8.30603 9.83609L9.7346 8.40752L19.7346 18.4075L18.306 19.8361Z" fill="#E11D1D"/>
<path fill-rule="evenodd" clip-rule="evenodd" d="M19.7346 9.83609L9.73462 19.8361L8.30605 18.4075L18.306 8.40752L19.7346 9.83609Z" fill="#E11D1D"/>
<path fill-rule="evenodd" clip-rule="evenodd" d="M14 23.9797C19.5116 23.9797 23.9797 19.5117 23.9797 14C23.9797 8.4884 19.5116 4.02034 14 4.02034C8.48837 4.02034 4.02031 8.4884 4.02031 14C4.02031 19.5117 8.48837 23.9797 14 23.9797ZM14 26C20.6274 26 26 20.6274 26 14C26 7.37261 20.6274 2.00003 14 2.00003C7.37258 2.00003 2 7.37261 2 14C2 20.6274 7.37258 26 14 26Z" fill="#E11D1D"/>
</svg>
