<svg width="24" height="24" viewBox="0 0 24 24" fill="none" xmlns="http://www.w3.org/2000/svg">
<path fill-rule="evenodd" clip-rule="evenodd" d="M11.0101 19.1929V5.05078H13.0304V19.1929H11.0101Z" fill="#696969"/>
<path fill-rule="evenodd" clip-rule="evenodd" d="M19.0914 13.132H4.94922V11.1117H19.0914V13.132Z" fill="#696969"/>
<path fill-rule="evenodd" clip-rule="evenodd" d="M12 21.9797C17.5116 21.9797 21.9797 17.5117 21.9797 12C21.9797 6.4884 17.5116 2.02034 12 2.02034C6.48837 2.02034 2.02031 6.4884 2.02031 12C2.02031 17.5117 6.48837 21.9797 12 21.9797ZM12 24C18.6274 24 24 18.6274 24 12C24 5.37261 18.6274 3.05176e-05 12 3.05176e-05C5.37258 3.05176e-05 0 5.37261 0 12C0 18.6274 5.37258 24 12 24Z" fill="#696969"/>
</svg>
