<svg width="39" height="54" viewBox="0 0 39 54" fill="none" xmlns="http://www.w3.org/2000/svg">
<path fill-rule="evenodd" clip-rule="evenodd" d="M11.37 30.315H16.095V54H11.37V30.315ZM22.74 30.315H27.465V54H22.74V30.315ZM17.055 25.575H21.795V54H17.055V25.575Z" fill="#FFD300"/>
<path fill-rule="evenodd" clip-rule="evenodd" d="M34.125 16.095H38.85L38.835 27.48L34.11 32.205V16.11L34.125 16.095ZM0 16.095H4.74V32.22L0 27.48V16.095ZM5.685 10.41H10.425V37.92L5.685 33.18V10.425V10.41ZM16.11 29.37H11.37V4.725H16.11V29.37ZM17.055 0H21.795V24.63H17.055V0ZM27.48 29.37H22.74V4.725H27.48V29.37ZM28.425 10.41H33.165V33.15L28.425 37.89V10.41Z" fill="#2B2A29"/>
</svg>
